<svg width="364" height="364" viewBox="0 0 364 364" fill="none" xmlns="http://www.w3.org/2000/svg">
<ellipse cx="182" cy="124.5" rx="139" ry="91.5" fill="#D9D9D9"/>
<path d="M108.005 31.1394C104.29 29.1443 100.616 26.6892 96.8783 24.8438C87.5974 20.2616 78.4107 15.9859 69.2862 11.0527C66.9799 9.81592 64.708 8.51337 62.4767 7.14674C58.9443 4.95253 55.4549 2.44367 51.5324 0.98744C48.9196 0.0166917 45.831 -0.373195 43.126 0.440443C40.6461 1.18592 38.6613 2.98145 37.4717 5.25989C32.5911 14.6096 37.9689 38.1951 41.2762 48.0811C44.0219 56.2927 47.7793 63.9395 51.8882 71.5387C37.776 90.2601 31.0179 116.786 34.278 139.996C35.8684 150.704 39.2057 161.078 44.1569 170.705C30.4134 198.798 29.8026 236.484 39.9323 265.741C52.6791 302.554 81.9281 332.365 116.587 349.291C152.02 366.256 192.692 368.644 229.866 355.944C267.952 343.172 299.372 315.738 317.161 279.722C331.708 249.858 333.973 212.218 323.298 180.723C322.268 177.688 320.763 173.819 319.328 170.992C321.665 165.883 323.317 162.339 325.097 156.974C332.272 135.352 331.692 114.864 323.755 93.612C320.78 85.715 316.724 78.2688 311.704 71.4856C313.342 68.7472 314.873 65.519 316.241 62.62C322.53 49.5988 326.406 35.5454 327.683 21.1417C327.899 19.7009 327.779 15.1446 327.746 13.5465C327.982 7.34886 325.03 0.331773 317.969 0.0512013C312.311 -0.173642 306.512 4.11017 301.832 6.97012C298.548 8.9697 295.208 10.8778 291.818 12.6922C280.148 18.8497 267.684 23.8874 256.719 30.972C253.279 29.6872 249.96 28.2299 246.513 26.9372C239.877 24.3866 233.079 22.2822 226.162 20.6382C189.22 11.677 143.645 14.663 108.922 30.6908C108.601 30.8387 108.318 30.9797 108.005 31.1394ZM100.76 186.18C83.3299 181.263 70.4115 172.179 61.2528 156.234C53.2364 142.28 51.5453 124.137 55.9735 108.692C60.644 92.7713 71.3911 79.3275 85.8912 71.2659C118.424 53.3232 155.215 65.9477 172.56 98.2462C175.134 103.157 177.162 108.336 178.604 113.689C179.333 116.45 179.888 119.427 180.799 122.124C180.983 122.666 181.779 122.573 182.259 122.573C182.655 122.216 182.906 121.538 183.037 121.033C184.426 115.603 185.768 110.435 187.792 105.189C197.789 79.0801 223.273 62.2106 251.212 63.208C269.008 64.679 283.566 71.8365 295.138 85.484C305.969 98.329 311.26 114.947 309.849 131.69C308.622 147.734 301.038 162.623 288.782 173.049C275.769 183.916 258.99 189.202 242.097 187.757C232.287 186.907 221.75 183.051 213.464 177.621C212.26 176.833 208.661 174.47 207.908 173.326C203.152 166.102 198.52 158.941 193.557 151.833C189.585 145.701 183.969 137.27 176.049 143.925C174.487 145.239 173.282 147.003 172.065 148.677C166.145 156.833 160.91 165.458 155.35 173.844C154.379 175.309 149.728 178.11 148.144 179.027C133.237 187.663 117.549 189.997 100.76 186.18Z" fill="#0D5183"/>
<path d="M200.188 189.547C197 191.005 189.557 205.462 186.074 208.161C184.666 209.249 182.996 210.336 181.08 210.053C175.511 209.23 172.208 201.008 169.238 196.779C167.414 194.183 165.986 192.404 164.029 190.034C155.273 197.945 140.419 203.921 128.886 205.925C111.921 208.78 94.4884 206.051 79.2059 198.153C74.409 195.677 70.7287 193.135 66.3412 190.036C58.2605 213.847 63.9406 243.475 73.9353 265.85C88.0175 297.367 116.746 330.251 149.409 342.938C207.284 366.777 262.94 320.038 286.906 270.272C298.435 246.33 305.84 216.102 296.689 190.218C281.411 201.192 267.626 206.358 248.489 207.057C232.936 207.623 211.413 200.41 200.188 189.547Z" fill="#2B86C0"/>
<path d="M249.712 85.2951C227.409 83.7199 208.056 100.536 206.503 122.841C204.95 145.147 221.784 164.483 244.091 166.014C266.367 167.544 285.671 150.737 287.222 128.462C288.773 106.188 271.986 86.868 249.712 85.2951ZM238.736 131.716C232.2 130.969 227.512 125.056 228.275 118.522C229.039 111.987 234.964 107.314 241.497 108.095C248.006 108.872 252.658 114.771 251.897 121.282C251.136 127.794 245.249 132.461 238.736 131.716Z" fill="#0D5183"/>
<path d="M119.348 85.4246C97.2019 83.5656 77.7248 99.9635 75.7786 122.101C73.8345 144.239 90.1587 163.781 112.289 165.81C134.54 167.85 154.21 151.419 156.165 129.161C158.12 106.902 141.613 87.2939 119.348 85.4246ZM121.281 131.723C114.733 131.054 109.972 125.195 110.658 118.649C111.344 112.103 117.215 107.358 123.761 108.06C130.281 108.761 135.005 114.606 134.321 121.128C133.638 127.65 127.806 132.389 121.281 131.723Z" fill="#0D5183"/>
</svg>
