<svg width="470" height="470" viewBox="0 0 470 470" fill="none" xmlns="http://www.w3.org/2000/svg">
<circle cx="235" cy="235" r="235" fill="#D9D9D9"/>
<mask id="mask0_3_8" style="mask-type:alpha" maskUnits="userSpaceOnUse" x="0" y="0" width="470" height="470">
<circle cx="235" cy="235" r="235" fill="#D9D9D9"/>
</mask>
<g mask="url(#mask0_3_8)">
<ellipse cx="236.5" cy="230.5" rx="189.5" ry="127.5" fill="#D9D9D9"/>
<path d="M132.512 100.373C127.335 97.5938 122.216 94.1742 117.008 91.6038C104.076 85.2215 91.2751 79.266 78.561 72.3948C75.3474 70.6721 72.1818 68.8579 69.0727 66.9544C64.1507 63.8981 59.2885 60.4037 53.8229 58.3753C50.1823 57.0232 45.8786 56.4802 42.1095 57.6134C38.654 58.6518 35.8884 61.1527 34.2308 64.3262C27.4302 77.3491 34.9236 110.2 39.532 123.97C43.3578 135.408 48.5934 146.059 54.3187 156.643C34.6548 182.719 25.2381 219.666 29.7807 251.994C31.9968 266.909 36.647 281.359 43.5459 294.768C24.3958 333.897 23.5447 386.388 37.6594 427.139C55.4207 478.415 96.1762 519.937 144.47 543.512C193.842 567.142 250.514 570.468 302.312 552.779C355.381 534.99 399.162 496.778 423.949 446.613C444.218 405.016 447.374 352.589 432.5 308.721C431.065 304.494 428.968 299.105 426.968 295.167C430.225 288.051 432.526 283.115 435.007 275.642C445.004 245.526 444.196 216.989 433.137 187.388C428.991 176.389 423.34 166.017 416.345 156.569C418.627 152.755 420.761 148.259 422.667 144.221C431.43 126.084 436.831 106.51 438.61 86.4473C438.911 84.4405 438.744 78.0942 438.698 75.8683C439.027 67.2359 434.913 57.4621 425.075 57.0713C417.191 56.7581 409.11 62.7248 402.589 66.7084C398.013 69.4935 393.359 72.1512 388.636 74.6784C372.375 83.2549 355.008 90.2717 339.729 100.14C334.936 98.35 330.311 96.3202 325.508 94.5196C316.262 90.967 306.789 88.0359 297.151 85.746C245.676 73.2644 182.172 77.4234 133.789 99.7479C133.342 99.9539 132.948 100.15 132.512 100.373ZM122.416 316.322C98.1294 309.473 80.129 296.821 67.3673 274.612C56.1973 255.176 53.8409 229.905 60.0112 208.392C66.519 186.217 81.494 167.492 101.698 156.263C147.029 131.272 198.294 148.856 222.462 193.843C226.049 200.683 228.875 207.897 230.884 215.353C231.9 219.198 232.673 223.345 233.942 227.101C234.199 227.856 235.308 227.727 235.977 227.727C236.529 227.229 236.878 226.285 237.061 225.582C238.996 218.018 240.866 210.82 243.687 203.513C257.616 167.147 293.126 143.65 332.056 145.04C356.853 147.089 377.138 157.058 393.262 176.067C408.354 193.958 415.726 217.105 413.76 240.425C412.05 262.772 401.483 283.511 384.406 298.033C366.273 313.169 342.893 320.531 319.355 318.519C305.686 317.335 291.003 311.964 279.458 304.401C277.78 303.303 272.765 300.012 271.716 298.418C265.089 288.356 258.635 278.382 251.719 268.482C246.185 259.941 238.36 248.197 227.324 257.467C225.147 259.297 223.468 261.754 221.773 264.086C213.524 275.446 206.229 287.459 198.482 299.14C197.129 301.18 190.648 305.082 188.441 306.359C167.67 318.388 145.81 321.639 122.416 316.322Z" fill="#0D5183"/>
<path d="M260.831 321C256.39 323.035 246.02 343.209 241.167 346.975C239.206 348.494 236.879 350.01 234.21 349.615C226.451 348.467 221.849 336.993 217.711 331.092C215.17 327.469 213.181 324.987 210.454 321.68C198.255 332.719 177.561 341.058 161.493 343.855C137.857 347.839 113.57 344.031 92.2783 333.009C85.5952 329.554 80.4678 326.007 74.3551 321.682C63.0971 354.91 71.0106 396.255 84.9353 427.479C104.555 471.46 144.579 517.348 190.086 535.053C270.717 568.319 348.257 503.096 381.647 433.649C397.709 400.239 408.026 358.057 395.277 321.936C373.991 337.25 354.786 344.459 328.124 345.435C306.456 346.225 276.47 336.159 260.831 321Z" fill="#2B86C0"/>
<path d="M329.944 175.143C299.074 172.943 272.287 196.426 270.138 227.575C267.988 258.725 291.288 285.727 322.164 287.865C352.997 290.002 379.716 266.531 381.862 235.424C384.009 204.319 360.774 177.339 329.944 175.143ZM314.752 239.969C305.705 238.925 299.217 230.668 300.273 221.543C301.33 212.417 309.531 205.892 318.573 206.982C327.583 208.067 334.022 216.305 332.968 225.398C331.915 234.492 323.767 241.009 314.752 239.969Z" fill="#0D5183"/>
<path d="M148.227 175.201C117.218 172.598 89.9451 195.559 87.22 226.557C84.4978 257.556 107.356 284.919 138.343 287.76C169.5 290.617 197.042 267.609 199.78 236.443C202.517 205.275 179.404 177.819 148.227 175.201ZM150.934 240.03C141.765 239.093 135.099 230.889 136.059 221.723C137.02 212.557 145.241 205.913 154.407 206.896C163.536 207.878 170.151 216.062 169.193 225.195C168.237 234.327 160.071 240.963 150.934 240.03Z" fill="#0D5183"/>
</g>
</svg>
