<svg width="127" height="122" viewBox="0 0 127 122" fill="none" xmlns="http://www.w3.org/2000/svg">
<path d="M48.86 77.805L90.92 46.782C92.982 45.262 95.929 45.855 96.912 48.217C102.083 60.676 99.773 75.648 89.484 85.928C79.195 96.208 64.881 98.462 51.797 93.328L37.504 99.94C58.004 113.941 82.899 110.479 98.456 94.924C110.795 82.595 114.617 65.789 111.043 50.634L111.076 50.665C105.894 28.401 112.35 19.502 125.574 1.305C125.887 0.872998 126.2 0.442 126.513 0L109.111 17.388V17.334L48.851 77.816" fill="white"/>
<path d="M40.181 85.345C25.467 71.301 28.004 49.565 40.559 37.031C49.843 27.754 65.054 23.968 78.333 29.534L92.594 22.954C90.024 21.099 86.731 19.103 82.953 17.701C65.875 10.678 45.428 14.173 31.545 28.035C18.19 41.378 13.99 61.895 21.203 79.402C26.59 92.486 17.759 101.741 8.863 111.083C5.711 114.394 2.548 117.706 0 121.212L40.17 85.356" fill="white"/>
</svg>
